<?xml version="1.0" encoding="iso-8859-1"?>
<!-- Generator: Adobe Illustrator 19.0.0, SVG Export Plug-In . SVG Version: 6.00 Build 0)  -->
<svg version="1.1" id="Layer_1" xmlns="http://www.w3.org/2000/svg" xmlns:xlink="http://www.w3.org/1999/xlink" x="0px" y="0px"
	 viewBox="0 0 512 512" style="enable-background:new 0 0 512 512;" xml:space="preserve">
<g>
	<g>
		<path d="M256.002,0C114.843,0,0,114.842,0,256s114.843,256,256.002,256C397.158,512,512,397.158,512,256S397.158,0,256.002,0z
			 M294.788,271.515c0,12.853-10.42,23.273-23.273,23.273h-85.304c-12.853,0-23.273-10.42-23.273-23.273
			c0-12.853,10.42-23.273,23.273-23.273h62.031V139.667c0-12.853,10.42-23.273,23.273-23.273c12.853,0,23.273,10.42,23.273,23.273
			V271.515z"/>
	</g>
</g>
<g>
</g>
<g>
</g>
<g>
</g>
<g>
</g>
<g>
</g>
<g>
</g>
<g>
</g>
<g>
</g>
<g>
</g>
<g>
</g>
<g>
</g>
<g>
</g>
<g>
</g>
<g>
</g>
<g>
</g>
</svg>
